<svg width="42" height="42" viewBox="0 0 42 42" fill="none" xmlns="http://www.w3.org/2000/svg">
<path d="M18.5 1.44338C20.047 0.550211 21.953 0.550212 23.5 1.44338L36.6865 9.05662C38.2335 9.94979 39.1865 11.6004 39.1865 13.3868V28.6132C39.1865 30.3996 38.2335 32.0502 36.6865 32.9434L23.5 40.5566C21.953 41.4498 20.047 41.4498 18.5 40.5566L5.31347 32.9434C3.76646 32.0502 2.81347 30.3996 2.81347 28.6132V13.3868C2.81347 11.6004 3.76646 9.94979 5.31347 9.05662L18.5 1.44338Z" fill="#E95548"/>
<g clip-path="url(#clip0_1937_10436)">
<path d="M21.0014 13C16.5904 13 13 16.6397 13 21.1175C13 25.5952 16.5904 29.235 21.0014 29.235C23.0086 29.235 24.8451 28.478 26.2521 27.2349L25.2581 26.2824L24.2559 25.3215C23.3583 26.0366 22.2266 26.4667 20.9986 26.4667C18.091 26.4667 15.7259 24.0673 15.7259 21.1175C15.7259 18.1677 18.0938 15.7682 21.0014 15.7682C23.909 15.7682 26.2025 18.1007 26.2686 20.9918V27.2154C27.9427 25.7265 29 23.5449 29 21.1175C29.0028 16.6397 25.4123 13 21.0014 13Z" fill="white"/>
<path d="M22.7242 19.9963C23.338 20.9312 23.0844 22.1882 22.1574 22.8072C21.2305 23.4262 19.9842 23.1704 19.3704 22.2356C18.7566 21.3007 19.0103 20.0437 19.9372 19.4247C20.8641 18.8056 22.1105 19.0614 22.7242 19.9963Z" fill="white"/>
</g>
<defs>
<clipPath id="clip0_1937_10436">
<rect x="13" y="13" width="16" height="16.235" rx="5" fill="white"/>
</clipPath>
</defs>
</svg>
