<svg width="42" height="42" viewBox="0 0 42 42" fill="none" xmlns="http://www.w3.org/2000/svg">
<path d="M17.4645 3.53553C19.4171 1.58291 22.5829 1.58291 24.5355 3.53553L38.4645 17.4645C40.4171 19.4171 40.4171 22.5829 38.4645 24.5355L24.5355 38.4645C22.5829 40.4171 19.4171 40.4171 17.4645 38.4645L3.53553 24.5355C1.58291 22.5829 1.58291 19.4171 3.53553 17.4645L17.4645 3.53553Z" fill="#17BB7F"/>
<g clip-path="url(#clip0_1937_10379)">
<path d="M21.0014 13C16.5904 13 13 16.6397 13 21.1175C13 25.5952 16.5904 29.235 21.0014 29.235C23.0086 29.235 24.8451 28.478 26.2521 27.2349L25.2581 26.2824L24.2559 25.3215C23.3583 26.0366 22.2266 26.4667 20.9986 26.4667C18.091 26.4667 15.7259 24.0673 15.7259 21.1175C15.7259 18.1677 18.0938 15.7682 21.0014 15.7682C23.909 15.7682 26.2025 18.1007 26.2686 20.9918V27.2154C27.9427 25.7265 29 23.5449 29 21.1175C29.0028 16.6397 25.4123 13 21.0014 13Z" fill="white"/>
<path d="M22.7242 19.9964C23.338 20.9313 23.0844 22.1883 22.1574 22.8073C21.2305 23.4264 19.9842 23.1705 19.3704 22.2357C18.7566 21.3008 19.0103 20.0438 19.9372 19.4248C20.8641 18.8057 22.1105 19.0616 22.7242 19.9964Z" fill="white"/>
</g>
<defs>
<clipPath id="clip0_1937_10379">
<rect x="13" y="13" width="16" height="16.235" rx="5" fill="white"/>
</clipPath>
</defs>
</svg>
