<svg width="42" height="42" viewBox="0 0 42 42" fill="none" xmlns="http://www.w3.org/2000/svg">
<path d="M18.0611 2.13526C19.8135 0.862038 22.1865 0.862035 23.9389 2.13525L38.0333 12.3754C39.7857 13.6486 40.519 15.9054 39.8496 17.9656L34.4661 34.5344C33.7967 36.5946 31.8769 37.9894 29.7108 37.9894H12.2892C10.1231 37.9894 8.20331 36.5946 7.53394 34.5344L2.15038 17.9656C1.48101 15.9054 2.2143 13.6486 3.96674 12.3754L18.0611 2.13526Z" fill="#F42E98"/>
<g clip-path="url(#clip0_1937_10435)">
<path d="M21.0014 13C16.5904 13 13 16.6397 13 21.1175C13 25.5952 16.5904 29.235 21.0014 29.235C23.0086 29.235 24.8451 28.478 26.2521 27.2349L25.2581 26.2824L24.2559 25.3215C23.3583 26.0366 22.2266 26.4667 20.9986 26.4667C18.091 26.4667 15.7259 24.0673 15.7259 21.1175C15.7259 18.1677 18.0938 15.7682 21.0014 15.7682C23.909 15.7682 26.2025 18.1007 26.2686 20.9918V27.2154C27.9427 25.7265 29 23.5449 29 21.1175C29.0028 16.6397 25.4123 13 21.0014 13Z" fill="white"/>
<path d="M22.7242 19.9963C23.338 20.9312 23.0844 22.1882 22.1574 22.8072C21.2305 23.4262 19.9842 23.1704 19.3704 22.2356C18.7566 21.3007 19.0103 20.0437 19.9372 19.4247C20.8641 18.8056 22.1105 19.0614 22.7242 19.9963Z" fill="white"/>
</g>
<defs>
<clipPath id="clip0_1937_10435">
<rect x="13" y="13" width="16" height="16.235" rx="5" fill="white"/>
</clipPath>
</defs>
</svg>
