<svg width="24" height="24" viewBox="0 0 24 24" fill="none" xmlns="http://www.w3.org/2000/svg">
<path d="M17.9998 15C17.7662 15.0005 17.5397 14.9191 17.3598 14.77L11.9998 10.29L6.62982 14.61C6.52753 14.6931 6.40984 14.7551 6.2835 14.7925C6.15716 14.83 6.02467 14.8421 5.89364 14.8281C5.76261 14.8142 5.63563 14.7745 5.51999 14.7113C5.40435 14.6481 5.30234 14.5627 5.21982 14.46C5.13675 14.3577 5.07472 14.24 5.03729 14.1137C4.99986 13.9873 4.98777 13.8548 5.0017 13.7238C5.01564 13.5928 5.05534 13.4658 5.11852 13.3502C5.18169 13.2345 5.26709 13.1325 5.36982 13.05L11.3698 8.22C11.5488 8.07291 11.7732 7.99251 12.0048 7.99251C12.2364 7.99251 12.4609 8.07291 12.6398 8.22L18.6398 13.22C18.7411 13.3039 18.8248 13.407 18.8861 13.5234C18.9475 13.6397 18.9853 13.767 18.9974 13.898C19.0094 14.029 18.9956 14.1611 18.9565 14.2867C18.9175 14.4123 18.854 14.5289 18.7698 14.63C18.6768 14.7447 18.5595 14.8374 18.4263 14.9014C18.2932 14.9653 18.1475 14.999 17.9998 15Z" fill="#4C5866"/>
</svg>
