<svg width="36" height="36" viewBox="0 0 36 36" fill="none" xmlns="http://www.w3.org/2000/svg">
<rect width="36" height="36" fill="white"/>
<path d="M5 6.75C5 5.75544 5.42143 4.80161 6.17157 4.09835C6.92172 3.39509 7.93913 3 9 3H21C22.0609 3 23.0783 3.39509 23.8284 4.09835C24.5786 4.80161 25 5.75544 25 6.75V29.25C25 30.2446 24.5786 31.1984 23.8284 31.9016C23.0783 32.6049 22.0609 33 21 33H9C7.93913 33 6.92172 32.6049 6.17157 31.9016C5.42143 31.1984 5 30.2446 5 29.25V6.75ZM17 27.375C17 26.8777 16.7893 26.4008 16.4142 26.0492C16.0391 25.6975 15.5304 25.5 15 25.5C14.4696 25.5 13.9609 25.6975 13.5858 26.0492C13.2107 26.4008 13 26.8777 13 27.375C13 27.8723 13.2107 28.3492 13.5858 28.7008C13.9609 29.0525 14.4696 29.25 15 29.25C15.5304 29.25 16.0391 29.0525 16.4142 28.7008C16.7893 28.3492 17 27.8723 17 27.375Z" fill="#A3ABB8"/>
<rect x="7" y="5" width="16" height="19" rx="2" fill="white"/>
<rect x="16" y="7" width="15" height="13" rx="2" fill="white"/>
<path d="M18.5089 8C18.1087 8 17.7249 8.15694 17.442 8.43629C17.159 8.71564 17 9.09452 17 9.48958V17.5104C17 17.706 17.039 17.8997 17.1149 18.0805C17.1907 18.2612 17.3018 18.4254 17.442 18.5637C17.5821 18.702 17.7484 18.8118 17.9315 18.8866C18.1146 18.9615 18.3108 19 18.5089 19H28.4911C28.6892 19 28.8854 18.9615 29.0685 18.8866C29.2516 18.8118 29.4179 18.702 29.558 18.5637C29.6982 18.4254 29.8093 18.2612 29.8851 18.0805C29.961 17.8997 30 17.706 30 17.5104V9.48958C30 9.09452 29.841 8.71564 29.558 8.43629C29.2751 8.15694 28.8913 8 28.4911 8H18.5089ZM24.4286 12.125C24.4286 12.0034 24.4775 11.8869 24.5646 11.8009C24.6516 11.715 24.7697 11.6667 24.8929 11.6667H27.6786C27.8017 11.6667 27.9198 11.715 28.0069 11.8009C28.0939 11.8869 28.1429 12.0034 28.1429 12.125C28.1429 12.2466 28.0939 12.3631 28.0069 12.4491C27.9198 12.535 27.8017 12.5833 27.6786 12.5833H24.8929C24.7697 12.5833 24.6516 12.535 24.5646 12.4491C24.4775 12.3631 24.4286 12.2466 24.4286 12.125ZM24.8929 13.9583H27.6786C27.8017 13.9583 27.9198 14.0066 28.0069 14.0926C28.0939 14.1785 28.1429 14.2951 28.1429 14.4167C28.1429 14.5382 28.0939 14.6548 28.0069 14.7408C27.9198 14.8267 27.8017 14.875 27.6786 14.875H24.8929C24.7697 14.875 24.6516 14.8267 24.5646 14.7408C24.4775 14.6548 24.4286 14.5382 24.4286 14.4167C24.4286 14.2951 24.4775 14.1785 24.5646 14.0926C24.6516 14.0066 24.7697 13.9583 24.8929 13.9583ZM22.1071 12.125C22.1071 12.3681 22.0093 12.6013 21.8352 12.7732C21.661 12.9451 21.4248 13.0417 21.1786 13.0417C20.9323 13.0417 20.6961 12.9451 20.522 12.7732C20.3478 12.6013 20.25 12.3681 20.25 12.125C20.25 11.8819 20.3478 11.6487 20.522 11.4768C20.6961 11.3049 20.9323 11.2083 21.1786 11.2083C21.4248 11.2083 21.661 11.3049 21.8352 11.4768C22.0093 11.6487 22.1071 11.8819 22.1071 12.125ZM19.3214 14.1875C19.3214 14.0052 19.3948 13.8303 19.5254 13.7014C19.656 13.5724 19.8332 13.5 20.0179 13.5H22.3393C22.524 13.5 22.7011 13.5724 22.8317 13.7014C22.9623 13.8303 23.0357 14.0052 23.0357 14.1875C23.0357 14.1875 23.0357 15.7917 21.1786 15.7917C19.3214 15.7917 19.3214 14.1875 19.3214 14.1875Z" fill="#3182F7"/>
</svg>
