<svg width="20" height="20" viewBox="0 0 20 20" fill="none" xmlns="http://www.w3.org/2000/svg">
<rect width="20" height="20" fill="white"/>
<path d="M17.109 9.40275C17.2716 9.27919 17.3922 9.10683 17.4539 8.90982C17.5156 8.71281 17.5154 8.50104 17.4531 8.3042C17.3909 8.10737 17.2698 7.93533 17.1069 7.81222C16.944 7.68911 16.7475 7.6211 16.5447 7.61772L12.6078 7.46599C12.5884 7.46463 12.5699 7.45758 12.5544 7.44571C12.5388 7.43383 12.527 7.41763 12.5203 7.39905L11.1599 3.65049C11.0915 3.45978 10.9674 3.2951 10.8042 3.17875C10.6411 3.0624 10.4469 3 10.2478 3C10.0488 3 9.85452 3.0624 9.69139 3.17875C9.52825 3.2951 9.40411 3.45978 9.33575 3.65049L7.97969 7.41244C7.97299 7.43102 7.96116 7.44722 7.94564 7.4591C7.93012 7.47097 7.91156 7.47802 7.8922 7.47938L3.95526 7.63111C3.75255 7.63449 3.55596 7.7025 3.39306 7.82561C3.23015 7.94872 3.1091 8.12075 3.04687 8.31759C2.98465 8.51443 2.98437 8.7262 3.04608 8.92321C3.10778 9.12021 3.22838 9.29258 3.39096 9.41614L6.47928 11.8929C6.49473 11.9053 6.50629 11.922 6.51251 11.9411C6.51873 11.9601 6.51934 11.9806 6.51427 12L5.4513 15.8422C5.39621 16.0379 5.40155 16.2461 5.46658 16.4386C5.53161 16.631 5.65318 16.7984 5.81474 16.9179C5.97631 17.0373 6.17003 17.1031 6.36955 17.1063C6.56907 17.1095 6.7647 17.0499 6.92984 16.9356L10.1931 14.7043C10.2092 14.693 10.2283 14.6869 10.2478 14.6869C10.2673 14.6869 10.2864 14.693 10.3025 14.7043L13.5658 16.9356C13.7287 17.0538 13.9236 17.1173 14.1235 17.1173C14.3234 17.1173 14.5184 17.0538 14.6813 16.9356C14.8429 16.8172 14.9645 16.6507 15.0296 16.4589C15.0946 16.2671 15.0997 16.0595 15.0443 15.8646L13.9726 12.0089C13.9669 11.9895 13.9672 11.9689 13.9735 11.9497C13.9798 11.9305 13.9917 11.9138 14.0076 11.9018L17.109 9.40275Z" fill="#8C969F"/>
</svg>
