<svg width="16" height="16" viewBox="0 0 16 16" fill="none" xmlns="http://www.w3.org/2000/svg">
<path d="M14 5.66667V11.8333C14 12.408 13.7717 12.9591 13.3654 13.3654C12.9591 13.7717 12.408 14 11.8333 14H4.16667C3.59203 14 3.04093 13.7717 2.6346 13.3654C2.22827 12.9591 2 12.408 2 11.8333V5.66667H14ZM4.83333 10C4.61232 10 4.40036 10.0878 4.24408 10.2441C4.0878 10.4004 4 10.6123 4 10.8333C4 11.0543 4.0878 11.2663 4.24408 11.4226C4.40036 11.5789 4.61232 11.6667 4.83333 11.6667C5.05435 11.6667 5.26631 11.5789 5.42259 11.4226C5.57887 11.2663 5.66667 11.0543 5.66667 10.8333C5.66667 10.6123 5.57887 10.4004 5.42259 10.2441C5.26631 10.0878 5.05435 10 4.83333 10ZM8 10C7.77899 10 7.56702 10.0878 7.41074 10.2441C7.25446 10.4004 7.16667 10.6123 7.16667 10.8333C7.16667 11.0543 7.25446 11.2663 7.41074 11.4226C7.56702 11.5789 7.77899 11.6667 8 11.6667C8.22101 11.6667 8.43298 11.5789 8.58926 11.4226C8.74554 11.2663 8.83333 11.0543 8.83333 10.8333C8.83333 10.6123 8.74554 10.4004 8.58926 10.2441C8.43298 10.0878 8.22101 10 8 10ZM4.83333 7C4.61232 7 4.40036 7.0878 4.24408 7.24408C4.0878 7.40036 4 7.61232 4 7.83333C4 8.05435 4.0878 8.26631 4.24408 8.42259C4.40036 8.57887 4.61232 8.66667 4.83333 8.66667C5.05435 8.66667 5.26631 8.57887 5.42259 8.42259C5.57887 8.26631 5.66667 8.05435 5.66667 7.83333C5.66667 7.61232 5.57887 7.40036 5.42259 7.24408C5.26631 7.0878 5.05435 7 4.83333 7ZM8 7C7.77899 7 7.56702 7.0878 7.41074 7.24408C7.25446 7.40036 7.16667 7.61232 7.16667 7.83333C7.16667 8.05435 7.25446 8.26631 7.41074 8.42259C7.56702 8.57887 7.77899 8.66667 8 8.66667C8.22101 8.66667 8.43298 8.57887 8.58926 8.42259C8.74554 8.26631 8.83333 8.05435 8.83333 7.83333C8.83333 7.61232 8.74554 7.40036 8.58926 7.24408C8.43298 7.0878 8.22101 7 8 7ZM11.1667 7C10.9457 7 10.7337 7.0878 10.5774 7.24408C10.4211 7.40036 10.3333 7.61232 10.3333 7.83333C10.3333 8.05435 10.4211 8.26631 10.5774 8.42259C10.7337 8.57887 10.9457 8.66667 11.1667 8.66667C11.3877 8.66667 11.5996 8.57887 11.7559 8.42259C11.9122 8.26631 12 8.05435 12 7.83333C12 7.61232 11.9122 7.40036 11.7559 7.24408C11.5996 7.0878 11.3877 7 11.1667 7ZM11.8333 2C12.408 2 12.9591 2.22827 13.3654 2.6346C13.7717 3.04093 14 3.59203 14 4.16667V4.66667H2V4.16667C2 3.59203 2.22827 3.04093 2.6346 2.6346C3.04093 2.22827 3.59203 2 4.16667 2H11.8333Z" fill="#A3ABB8"/>
</svg>
