<svg width="30" height="32" viewBox="0 0 30 32" fill="none" xmlns="http://www.w3.org/2000/svg">
<path d="M0 3.9375C0 2.89321 0.442499 1.89169 1.23015 1.15327C2.0178 0.414843 3.08609 0 4.2 0L16.8 0C17.9139 0 18.9822 0.414843 19.7698 1.15327C20.5575 1.89169 21 2.89321 21 3.9375V27.5625C21 28.6068 20.5575 29.6083 19.7698 30.3467C18.9822 31.0852 17.9139 31.5 16.8 31.5H4.2C3.08609 31.5 2.0178 31.0852 1.23015 30.3467C0.442499 29.6083 0 28.6068 0 27.5625V3.9375ZM12.6 25.5938C12.6 25.0716 12.3787 24.5708 11.9849 24.2016C11.5911 23.8324 11.057 23.625 10.5 23.625C9.94304 23.625 9.4089 23.8324 9.01508 24.2016C8.62125 24.5708 8.4 25.0716 8.4 25.5938C8.4 26.1159 8.62125 26.6167 9.01508 26.9859C9.4089 27.3551 9.94304 27.5625 10.5 27.5625C11.057 27.5625 11.5911 27.3551 11.9849 26.9859C12.3787 26.6167 12.6 26.1159 12.6 25.5938Z" fill="#8C969F"/>
<rect x="2.5" y="2.5" width="16.2857" height="19" rx="2" fill="white"/>
<circle cx="22.5" cy="10.5" r="7.5" fill="white"/>
<path fill-rule="evenodd" clip-rule="evenodd" d="M22.5001 4.00012C18.9103 4.00012 16.0001 6.91035 16.0001 10.5001C16.0001 14.0899 18.9103 17.0001 22.5001 17.0001C26.0899 17.0001 29.0001 14.0899 29.0001 10.5001C29.0001 6.91035 26.0899 4.00012 22.5001 4.00012ZM25.3176 9.40103C25.3695 9.34173 25.409 9.27265 25.4337 9.19786C25.4585 9.12307 25.4681 9.04407 25.4619 8.96552C25.4557 8.88697 25.4339 8.81045 25.3977 8.74047C25.3615 8.67049 25.3117 8.60845 25.2511 8.55801C25.1906 8.50756 25.1206 8.46974 25.0452 8.44675C24.9699 8.42376 24.8907 8.41608 24.8123 8.42416C24.7339 8.43223 24.6579 8.4559 24.5888 8.49377C24.5197 8.53164 24.4589 8.58294 24.4099 8.64467L21.869 11.6932L20.5543 10.3778C20.4428 10.2702 20.2935 10.2106 20.1386 10.212C19.9837 10.2133 19.8355 10.2754 19.7259 10.385C19.6164 10.4946 19.5542 10.6428 19.5529 10.7977C19.5515 10.9526 19.6111 11.1019 19.7187 11.2133L21.4914 12.9861C21.5495 13.0441 21.619 13.0894 21.6955 13.1191C21.7721 13.1487 21.854 13.1621 21.936 13.1584C22.018 13.1547 22.0983 13.1339 22.1718 13.0974C22.2453 13.0609 22.3105 13.0095 22.363 12.9465L25.3176 9.40103Z" fill="#F42E98"/>
</svg>
