<svg width="36" height="36" viewBox="0 0 36 36" fill="none" xmlns="http://www.w3.org/2000/svg">
<g clip-path="url(#clip0_1173_21391)">
<path d="M11.4412 4.5C11.674 3.8417 12.1052 3.27179 12.6754 2.86881C13.2456 2.46584 13.9268 2.24963 14.625 2.25H21.375C22.0732 2.24963 22.7544 2.46584 23.3246 2.86881C23.8948 3.27179 24.326 3.8417 24.5588 4.5H25.875C26.7701 4.5 27.6286 4.85558 28.2615 5.48852C28.8944 6.12145 29.25 6.97989 29.25 7.875V30.375C29.25 31.2701 28.8944 32.1286 28.2615 32.7615C27.6286 33.3944 26.7701 33.75 25.875 33.75H10.125C9.22989 33.75 8.37145 33.3944 7.73851 32.7615C7.10558 32.1286 6.75 31.2701 6.75 30.375V7.875C6.75 6.97989 7.10558 6.12145 7.73851 5.48852C8.37145 4.85558 9.22989 4.5 10.125 4.5H11.4412ZM14.625 4.5C14.3266 4.5 14.0405 4.61853 13.8295 4.82951C13.6185 5.04048 13.5 5.32663 13.5 5.625C13.5 5.92337 13.6185 6.20952 13.8295 6.4205C14.0405 6.63147 14.3266 6.75 14.625 6.75H21.375C21.6734 6.75 21.9595 6.63147 22.1705 6.4205C22.3815 6.20952 22.5 5.92337 22.5 5.625C22.5 5.32663 22.3815 5.04048 22.1705 4.82951C21.9595 4.61853 21.6734 4.5 21.375 4.5H14.625ZM15.75 16.875C15.75 17.1734 15.8685 17.4595 16.0795 17.6705C16.2905 17.8815 16.5766 18 16.875 18H23.625C23.9234 18 24.2095 17.8815 24.4205 17.6705C24.6315 17.4595 24.75 17.1734 24.75 16.875C24.75 16.5766 24.6315 16.2905 24.4205 16.0795C24.2095 15.8685 23.9234 15.75 23.625 15.75H16.875C16.5766 15.75 16.2905 15.8685 16.0795 16.0795C15.8685 16.2905 15.75 16.5766 15.75 16.875ZM15.75 23.625C15.75 23.9234 15.8685 24.2095 16.0795 24.4205C16.2905 24.6315 16.5766 24.75 16.875 24.75H23.625C23.9234 24.75 24.2095 24.6315 24.4205 24.4205C24.6315 24.2095 24.75 23.9234 24.75 23.625C24.75 23.3266 24.6315 23.0405 24.4205 22.8295C24.2095 22.6185 23.9234 22.5 23.625 22.5H16.875C16.5766 22.5 16.2905 22.6185 16.0795 22.8295C15.8685 23.0405 15.75 23.3266 15.75 23.625ZM12.375 18C12.6734 18 12.9595 17.8815 13.1705 17.6705C13.3815 17.4595 13.5 17.1734 13.5 16.875C13.5 16.5766 13.3815 16.2905 13.1705 16.0795C12.9595 15.8685 12.6734 15.75 12.375 15.75C12.0766 15.75 11.7905 15.8685 11.5795 16.0795C11.3685 16.2905 11.25 16.5766 11.25 16.875C11.25 17.1734 11.3685 17.4595 11.5795 17.6705C11.7905 17.8815 12.0766 18 12.375 18ZM12.375 24.75C12.6734 24.75 12.9595 24.6315 13.1705 24.4205C13.3815 24.2095 13.5 23.9234 13.5 23.625C13.5 23.3266 13.3815 23.0405 13.1705 22.8295C12.9595 22.6185 12.6734 22.5 12.375 22.5C12.0766 22.5 11.7905 22.6185 11.5795 22.8295C11.3685 23.0405 11.25 23.3266 11.25 23.625C11.25 23.9234 11.3685 24.2095 11.5795 24.4205C11.7905 24.6315 12.0766 24.75 12.375 24.75Z" fill="#8C969F"/>
<circle cx="28.5" cy="14.5" r="7.5" fill="white"/>
<path d="M28.5 8C24.9105 8 22 10.9105 22 14.5C22 18.0895 24.9105 21 28.5 21C32.0895 21 35 18.0895 35 14.5C35 10.9105 32.0895 8 28.5 8ZM28.8235 17.6513L28.8265 18.1113C28.8265 18.1751 28.7742 18.2288 28.7104 18.2288H28.2983C28.2345 18.2288 28.1823 18.1766 28.1823 18.1127V17.6571C26.8939 17.5614 26.2874 16.8272 26.2221 16.0292C26.2163 15.9611 26.27 15.903 26.3382 15.903H27.0085C27.0651 15.903 27.1144 15.9436 27.1231 15.9988C27.1971 16.4587 27.5555 16.8026 28.1982 16.8882V14.8177L27.8398 14.7263C27.081 14.545 26.3585 14.072 26.3585 13.0912C26.3585 12.0335 27.1623 11.4647 28.1895 11.3646V10.8858C28.1895 10.822 28.2417 10.7698 28.3056 10.7698H28.7133C28.7771 10.7698 28.8294 10.822 28.8294 10.8858V11.3603C29.8232 11.4604 30.569 12.0407 30.656 12.9446C30.6633 13.0128 30.6096 13.0723 30.54 13.0723H29.8885C29.8305 13.0723 29.7811 13.0288 29.7739 12.9722C29.7158 12.5485 29.3763 12.2032 28.8235 12.1278V14.0763L29.1921 14.1619C30.1323 14.3941 30.7721 14.8439 30.7721 15.8508C30.7721 16.9433 29.9596 17.5527 28.8235 17.6513ZM27.2609 13.0244C27.2609 13.393 27.4887 13.6788 27.9791 13.8558C28.0473 13.8834 28.1155 13.9051 28.1968 13.9283V12.1292C27.6614 12.1974 27.2609 12.4978 27.2609 13.0244ZM28.9512 14.986C28.9106 14.9773 28.87 14.9672 28.8235 14.9541V16.894C29.4416 16.8388 29.8682 16.4993 29.8682 15.9306C29.8682 15.4852 29.6375 15.195 28.9512 14.986Z" fill="#FFC700"/>
</g>
<defs>
<clipPath id="clip0_1173_21391">
<rect width="36" height="36" fill="white"/>
</clipPath>
</defs>
</svg>
