<svg width="138" height="138" viewBox="0 0 138 138" fill="none" xmlns="http://www.w3.org/2000/svg">
<circle cx="69" cy="69" r="69" fill="#F8F8FA"/>
<path fill-rule="evenodd" clip-rule="evenodd" d="M83.2106 39.75H87.2812C89.5439 39.75 91.7138 40.6488 93.3138 42.2487C94.9137 43.8487 95.8125 46.0186 95.8125 48.2812V64.2274C93.5117 64.5542 91.3815 65.6262 89.748 67.2791L73.5338 83.625H56.8125C56.166 83.625 55.546 83.8818 55.0889 84.3389C54.6318 84.796 54.375 85.416 54.375 86.0625C54.375 86.709 54.6318 87.329 55.0889 87.7861C55.546 88.2432 56.166 88.5 56.8125 88.5H68.7051C67.5217 89.7462 66.6745 91.2727 66.2432 92.9362L64.3151 100.373C64.0787 101.272 64.052 102.214 64.2371 103.125H50.7188C48.4561 103.125 46.2862 102.226 44.6862 100.626C43.0863 99.0263 42.1875 96.8564 42.1875 94.5938V48.2812C42.1875 46.0186 43.0863 43.8487 44.6862 42.2487C46.2862 40.6488 48.4561 39.75 50.7188 39.75H54.7894C55.294 38.3239 56.2283 37.0893 57.4637 36.2162C58.6991 35.3431 60.1747 34.8746 61.6875 34.875H76.3125C77.8253 34.8746 79.3009 35.3431 80.5363 36.2162C81.7717 37.0893 82.706 38.3239 83.2106 39.75ZM76.3125 39.75H61.6875C61.041 39.75 60.421 40.0068 59.9639 40.4639C59.5068 40.921 59.25 41.541 59.25 42.1875C59.25 42.834 59.5068 43.454 59.9639 43.9111C60.421 44.3682 61.041 44.625 61.6875 44.625H76.3125C76.959 44.625 77.579 44.3682 78.0361 43.9111C78.4932 43.454 78.75 42.834 78.75 42.1875C78.75 41.541 78.4932 40.921 78.0361 40.4639C77.579 40.0068 76.959 39.75 76.3125 39.75ZM55.0889 59.9639C54.6318 60.421 54.375 61.041 54.375 61.6875C54.375 62.334 54.6318 62.954 55.0889 63.4111C55.546 63.8682 56.166 64.125 56.8125 64.125H81.1875C81.834 64.125 82.454 63.8682 82.9111 63.4111C83.3682 62.954 83.625 62.334 83.625 61.6875C83.625 61.041 83.3682 60.421 82.9111 59.9639C82.454 59.5068 81.834 59.25 81.1875 59.25H56.8125C56.166 59.25 55.546 59.5068 55.0889 59.9639ZM69 71.4375H56.8125C56.166 71.4375 55.546 71.6943 55.0889 72.1514C54.6318 72.6085 54.375 73.2285 54.375 73.875C54.375 74.5215 54.6318 75.1415 55.0889 75.5986C55.546 76.0557 56.166 76.3125 56.8125 76.3125H69C69.6465 76.3125 70.2665 76.0557 70.7236 75.5986C71.1807 75.1415 71.4375 74.5215 71.4375 73.875C71.4375 73.2285 71.1807 72.6085 70.7236 72.1514C70.2665 71.6943 69.6465 71.4375 69 71.4375Z" fill="#ABB6C5"/>
<path d="M102.277 79.7859L81.2826 100.61C80.4246 101.46 79.3569 102.067 78.1869 102.367L70.8257 104.263C70.4147 104.37 69.983 104.367 69.5735 104.255C69.1639 104.143 68.7907 103.926 68.4908 103.626C68.1908 103.325 67.9746 102.952 67.8634 102.542C67.7522 102.132 67.7499 101.7 67.8568 101.29L69.7824 93.8527C70.0701 92.7412 70.6477 91.7272 71.457 90.9131L92.3464 69.8531C92.9986 69.2011 93.7728 68.6839 94.6249 68.3311C95.477 67.9783 96.3902 67.7967 97.3124 67.7968C98.2347 67.7969 99.1478 67.9787 99.9998 68.3317C100.852 68.6848 101.626 69.2021 102.278 69.8543C102.93 70.5065 103.447 71.2808 103.8 72.1329C104.153 72.9849 104.334 73.8982 104.334 74.8204C104.334 75.7426 104.152 76.6558 103.799 77.5078C103.446 78.3598 102.929 79.1339 102.277 79.7859Z" fill="#3182F7"/>
</svg>
