<svg width="16" height="16" viewBox="0 0 16 16" fill="none" xmlns="http://www.w3.org/2000/svg">
<path d="M6.66671 3.33333H9.33337C9.33337 2.97971 9.1929 2.64057 8.94285 2.39052C8.6928 2.14048 8.35366 2 8.00004 2C7.64642 2 7.30728 2.14048 7.05723 2.39052C6.80718 2.64057 6.66671 2.97971 6.66671 3.33333ZM5.66671 3.33333C5.66671 3.02692 5.72706 2.7235 5.84432 2.44041C5.96158 2.15731 6.13345 1.90009 6.35012 1.68342C6.56679 1.46675 6.82402 1.29488 7.10711 1.17761C7.39021 1.06035 7.69362 1 8.00004 1C8.30646 1 8.60988 1.06035 8.89297 1.17761C9.17606 1.29488 9.43329 1.46675 9.64996 1.68342C9.86663 1.90009 10.0385 2.15731 10.1558 2.44041C10.273 2.7235 10.3334 3.02692 10.3334 3.33333H14.1667C14.2993 3.33333 14.4265 3.38601 14.5203 3.47978C14.614 3.57355 14.6667 3.70073 14.6667 3.83333C14.6667 3.96594 14.614 4.09312 14.5203 4.18689C14.4265 4.28066 14.2993 4.33333 14.1667 4.33333H13.2867L12.5067 12.4073C12.4469 13.026 12.1587 13.6002 11.6985 14.0179C11.2383 14.4356 10.6389 14.6669 10.0174 14.6667H5.98271C5.36128 14.6667 4.76211 14.4354 4.30201 14.0177C3.84191 13.6 3.55386 13.0259 3.49404 12.4073L2.71337 4.33333H1.83337C1.70077 4.33333 1.57359 4.28066 1.47982 4.18689C1.38605 4.09312 1.33337 3.96594 1.33337 3.83333C1.33337 3.70073 1.38605 3.57355 1.47982 3.47978C1.57359 3.38601 1.70077 3.33333 1.83337 3.33333H5.66671ZM7.00004 6.5C7.00004 6.36739 6.94736 6.24022 6.85359 6.14645C6.75983 6.05268 6.63265 6 6.50004 6C6.36743 6 6.24026 6.05268 6.14649 6.14645C6.05272 6.24022 6.00004 6.36739 6.00004 6.5V11.5C6.00004 11.6326 6.05272 11.7598 6.14649 11.8536C6.24026 11.9473 6.36743 12 6.50004 12C6.63265 12 6.75983 11.9473 6.85359 11.8536C6.94736 11.7598 7.00004 11.6326 7.00004 11.5V6.5ZM9.50004 6C9.36743 6 9.24026 6.05268 9.14649 6.14645C9.05272 6.24022 9.00004 6.36739 9.00004 6.5V11.5C9.00004 11.6326 9.05272 11.7598 9.14649 11.8536C9.24026 11.9473 9.36743 12 9.50004 12C9.63265 12 9.75982 11.9473 9.85359 11.8536C9.94736 11.7598 10 11.6326 10 11.5V6.5C10 6.36739 9.94736 6.24022 9.85359 6.14645C9.75982 6.05268 9.63265 6 9.50004 6Z" fill="#ABB6C5"/>
</svg>
