<svg width="16" height="16" viewBox="0 0 16 16" fill="none" xmlns="http://www.w3.org/2000/svg">
<path d="M6.49839 1.59998C6.27602 1.59998 6.05803 1.66177 5.86874 1.77846C5.67945 1.89514 5.5263 2.06212 5.42639 2.26078L4.95439 3.19998H3.60239C3.07195 3.19998 2.56325 3.41069 2.18817 3.78576C1.8131 4.16083 1.60239 4.66954 1.60239 5.19998V11.6C1.60239 12.1304 1.8131 12.6391 2.18817 13.0142C2.56325 13.3893 3.07195 13.6 3.60239 13.6H6.40239C6.40879 13.5088 6.42319 13.416 6.44639 13.3224L6.74639 12.124C6.83919 11.7528 7.01439 11.4072 7.25759 11.1136C6.49685 10.9297 5.82979 10.4736 5.38249 9.83139C4.93518 9.18918 4.7386 8.40536 4.82991 7.62806C4.92121 6.85077 5.29406 6.13384 5.87801 5.61276C6.46196 5.09167 7.21655 4.80253 7.99919 4.79998C8.71659 4.80008 9.41317 5.04113 9.97719 5.48446C10.5412 5.92779 10.94 6.5477 11.1096 7.24478L11.2824 7.07278C11.6918 6.66341 12.2408 6.42383 12.8193 6.40202C13.3979 6.38022 13.9633 6.57779 14.4024 6.95518V5.19918C14.4024 4.66874 14.1917 4.16003 13.8166 3.78496C13.4415 3.40989 12.9328 3.19918 12.4024 3.19918H11.0512L10.5832 2.26318C10.4835 2.06383 10.3302 1.8962 10.1406 1.77906C9.95098 1.66192 9.73247 1.59991 9.50959 1.59998H6.49839ZM10.4 7.95598C10.3914 7.48513 10.2445 7.0272 9.97761 6.63923C9.71068 6.25125 9.33551 5.95039 8.89882 5.7741C8.46213 5.5978 7.98323 5.55388 7.52177 5.64779C7.0603 5.74171 6.63665 5.96931 6.3036 6.30225C5.97055 6.63519 5.74281 7.05876 5.64875 7.5202C5.55468 7.98164 5.59845 8.46055 5.7746 8.8973C5.95075 9.33404 6.25149 9.70931 6.63938 9.97637C7.02726 10.2434 7.48514 10.3905 7.95599 10.3992L10.4 7.95598ZM11.848 7.63838L7.98399 11.5024C7.75908 11.7276 7.59953 12.0096 7.52239 12.3184L7.22239 13.5168C7.1928 13.636 7.19455 13.7608 7.22745 13.8791C7.26036 13.9974 7.32331 14.1052 7.41019 14.192C7.49707 14.2788 7.60492 14.3416 7.72326 14.3744C7.84161 14.4072 7.96642 14.4089 8.08559 14.3792L9.28399 14.08C9.59289 14.0027 9.87497 13.8429 10.1 13.6176L13.964 9.75358C14.2409 9.47223 14.3954 9.09285 14.3938 8.69809C14.3922 8.30334 14.2346 7.92522 13.9554 7.64614C13.6762 7.36706 13.2981 7.20963 12.9033 7.20818C12.5086 7.20673 12.1292 7.36136 11.848 7.63838Z" fill="#C2C7CB"/>
</svg>
