<svg width="16" height="16" viewBox="0 0 16 16" fill="none" xmlns="http://www.w3.org/2000/svg">
<path fill-rule="evenodd" clip-rule="evenodd" d="M2.6346 13.3654C2.22827 12.9591 2 12.408 2 11.8333V7.33333H5.16667C5.4512 7.33333 5.73294 7.27729 5.99581 7.16841C6.25869 7.05952 6.49754 6.89992 6.69873 6.69873C6.89993 6.49754 7.05952 6.25869 7.16841 5.99581C7.27729 5.73294 7.33333 5.4512 7.33333 5.16667V2H11.8333C12.408 2 12.9591 2.22827 13.3654 2.6346C13.7717 3.04093 14 3.59203 14 4.16667V7.34133C13.6816 7.31343 13.361 7.35568 13.0607 7.4651C12.7604 7.57453 12.4878 7.74847 12.262 7.97467L8.32733 11.91C8.012 12.2247 7.78867 12.6193 7.68067 13.0513L7.44333 14H4.16667C3.59203 14 3.04093 13.7717 2.6346 13.3654ZM2.29333 6.33333L6.33333 2.29333V5.16667C6.33333 5.47609 6.21042 5.77283 5.99162 5.99162C5.77283 6.21042 5.47609 6.33333 5.16667 6.33333H2.29333Z" fill="#ABB6C5"/>
<path d="M12.7333 8.44667L8.798 12.3813C8.56872 12.6107 8.40604 12.898 8.32733 13.2127L8.022 14.4333C7.99163 14.5548 7.99325 14.682 8.02669 14.8027C8.06013 14.9233 8.12425 15.0332 8.2128 15.1217C8.30136 15.2102 8.41133 15.2742 8.53199 15.3076C8.65266 15.3409 8.77991 15.3425 8.90133 15.312L10.1213 15.0073C10.4363 14.9286 10.7239 14.7657 10.9533 14.536L14.888 10.6013C15.1627 10.3134 15.3139 9.92938 15.3092 9.53141C15.3046 9.13345 15.1444 8.75311 14.863 8.47168C14.5816 8.19026 14.2012 8.0301 13.8033 8.02542C13.4053 8.02075 13.0213 8.17193 12.7333 8.44667Z" fill="#3182F7"/>
</svg>
