<svg width="10" height="10" viewBox="0 0 10 10" fill="none" xmlns="http://www.w3.org/2000/svg">
<ellipse cx="5" cy="5" rx="5" ry="5" fill="white"/>
<path fill-rule="evenodd" clip-rule="evenodd" d="M1.93579 8.0638C2.74845 8.87646 3.85065 9.33301 4.99992 9.33301C6.14919 9.33301 7.25139 8.87646 8.06405 8.0638C8.87671 7.25115 9.33325 6.14895 9.33325 4.99967C9.33325 3.8504 8.87671 2.7482 8.06405 1.93555C7.25139 1.12289 6.14919 0.666342 4.99992 0.666342C3.85065 0.666342 2.74845 1.12289 1.93579 1.93555C1.12313 2.7482 0.666585 3.8504 0.666585 4.99967C0.666585 6.14895 1.12313 7.25115 1.93579 8.0638ZM4.88489 7.24828L4.82974 7.29319L4.76986 7.32786C4.70777 7.35614 4.63941 7.36781 4.57146 7.36173C4.50351 7.35566 4.4383 7.33204 4.38222 7.29319L4.32786 7.24828L2.33452 5.25258L2.30459 5.21319L2.27228 5.15016L2.2518 5.08477L2.24392 5.03434V4.96501L2.2518 4.91458L2.27228 4.84919L2.30537 4.78616L2.33374 4.74677L4.32707 2.75107L4.38222 2.70616C4.45805 2.65427 4.54964 2.63052 4.64113 2.63902C4.73263 2.64752 4.81827 2.68774 4.88324 2.75272C4.94821 2.81769 4.98843 2.90333 4.99693 2.99482C5.00544 3.08632 4.98169 3.1779 4.9298 3.25374L4.88489 3.30889L3.58646 4.60652L7.36828 4.60574L7.43919 4.61204C7.5179 4.62642 7.59037 4.66443 7.64695 4.72101C7.70353 4.77759 7.74154 4.85005 7.75592 4.92877L7.76222 4.99967L7.75592 5.07058C7.74154 5.1493 7.70353 5.22176 7.64695 5.27834C7.59037 5.33492 7.5179 5.37293 7.43919 5.38731L7.36828 5.39361L3.58804 5.3944L4.88489 6.69046L4.9298 6.74561C4.9752 6.8114 4.99951 6.88944 4.99951 6.96937C4.99951 7.0493 4.9752 7.12734 4.9298 7.19313L4.88489 7.24828Z" fill="#F42E98"/>
</svg>
