<svg width="36" height="36" viewBox="0 0 36 36" fill="none" xmlns="http://www.w3.org/2000/svg">
<path d="M18 10.5C18 12.0913 17.3679 13.6174 16.2426 14.7426C15.1174 15.8679 13.5913 16.5 12 16.5C10.4087 16.5 8.88258 15.8679 7.75736 14.7426C6.63214 13.6174 6 12.0913 6 10.5C6 8.9087 6.63214 7.38258 7.75736 6.25736C8.88258 5.13214 10.4087 4.5 12 4.5C13.5913 4.5 15.1174 5.13214 16.2426 6.25736C17.3679 7.38258 18 8.9087 18 10.5ZM24.015 16.248C25.1573 15.7104 26.455 15.6023 27.6705 15.9435C28.546 15.4622 29.2365 14.7033 29.6331 13.7863C30.0297 12.8694 30.1098 11.8465 29.861 10.8789C29.6121 9.91135 29.0482 9.05413 28.2584 8.44235C27.4685 7.83057 26.4976 7.49904 25.4985 7.5C24.4356 7.49994 23.4069 7.87615 22.5948 8.56197C21.7827 9.24779 21.2396 10.1989 21.0617 11.2469C20.8838 12.2948 21.0826 13.3719 21.6229 14.2873C22.1632 15.2027 23.0116 15.8973 24.015 16.248ZM20.553 21.195C19.809 21.4458 19.1624 21.9238 18.7043 22.5616C18.2463 23.1994 18 23.9648 18 24.75V28.485C16.674 29.3655 14.76 30 12 30C3 30 3 23.25 3 23.25V22.875C3 21.9799 3.35558 21.1215 3.98851 20.4885C4.62145 19.8556 5.47989 19.5 6.375 19.5H17.625C18.219 19.4999 18.8026 19.6565 19.3167 19.9541C19.8308 20.2517 20.2573 20.6798 20.553 21.195Z" fill="#8C969F"/>
<path d="M22.5 21.75V20.25C22.5 19.2554 22.8951 18.3016 23.5983 17.5983C24.3016 16.8951 25.2554 16.5 26.25 16.5C27.2446 16.5 28.1984 16.8951 28.9017 17.5983C29.6049 18.3016 30 19.2554 30 20.25V21.75H30.75C31.3467 21.75 31.919 21.9871 32.341 22.409C32.7629 22.831 33 23.4033 33 24V31.5C33 32.0967 32.7629 32.669 32.341 33.091C31.919 33.5129 31.3467 33.75 30.75 33.75H21.75C21.1533 33.75 20.581 33.5129 20.159 33.091C19.7371 32.669 19.5 32.0967 19.5 31.5V24C19.5 23.4033 19.7371 22.831 20.159 22.409C20.581 21.9871 21.1533 21.75 21.75 21.75H22.5ZM24.75 20.25V21.75H27.75V20.25C27.75 19.8522 27.592 19.4706 27.3107 19.1893C27.0294 18.908 26.6478 18.75 26.25 18.75C25.8522 18.75 25.4706 18.908 25.1893 19.1893C24.908 19.4706 24.75 19.8522 24.75 20.25ZM27.75 27.75C27.75 27.3522 27.592 26.9706 27.3107 26.6893C27.0294 26.408 26.6478 26.25 26.25 26.25C25.8522 26.25 25.4706 26.408 25.1893 26.6893C24.908 26.9706 24.75 27.3522 24.75 27.75C24.75 28.1478 24.908 28.5294 25.1893 28.8107C25.4706 29.092 25.8522 29.25 26.25 29.25C26.6478 29.25 27.0294 29.092 27.3107 28.8107C27.592 28.5294 27.75 28.1478 27.75 27.75Z" fill="#17BB7F"/>
</svg>
