<svg width="36" height="36" viewBox="0 0 36 36" fill="none" xmlns="http://www.w3.org/2000/svg">
<path d="M18 12.375C18 13.8668 17.4074 15.2976 16.3525 16.3525C15.2976 17.4074 13.8668 18 12.375 18C10.8832 18 9.45242 17.4074 8.39752 16.3525C7.34263 15.2976 6.75 13.8668 6.75 12.375C6.75 10.8832 7.34263 9.45242 8.39752 8.39752C9.45242 7.34263 10.8832 6.75 12.375 6.75C13.8668 6.75 15.2976 7.34263 16.3525 8.39752C17.4074 9.45242 18 10.8832 18 12.375ZM25.875 18C27.0685 18 28.2131 17.5259 29.057 16.682C29.9009 15.8381 30.375 14.6935 30.375 13.5C30.375 12.3065 29.9009 11.1619 29.057 10.318C28.2131 9.47411 27.0685 9 25.875 9C24.6815 9 23.5369 9.47411 22.693 10.318C21.8491 11.1619 21.375 12.3065 21.375 13.5C21.375 14.6935 21.8491 15.8381 22.693 16.682C23.5369 17.5259 24.6815 18 25.875 18ZM18 21.375C18 20.9835 18.0675 20.6055 18.1913 20.2545C18.1276 20.2512 18.0638 20.2497 18 20.25H6.75C5.85489 20.25 4.99645 20.6056 4.36351 21.2385C3.73058 21.8715 3.375 22.7299 3.375 23.625V23.7937C3.375 23.7937 3.375 30.375 12.375 30.375C15.0975 30.375 16.9987 29.772 18.324 28.9305C18.4635 28.638 18.6435 28.3657 18.8595 28.125C18.3049 27.5069 17.9987 26.7054 18 25.875C18 25.011 18.324 24.2213 18.8595 23.625C18.3049 23.0069 17.9987 22.2054 18 21.375Z" fill="#8C969F"/>
<path d="M20.625 19.5C20.3266 19.5 20.0405 19.6185 19.8295 19.8295C19.6185 20.0405 19.5 20.3266 19.5 20.625C19.5 20.9234 19.6185 21.2095 19.8295 21.4205C20.0405 21.6315 20.3266 21.75 20.625 21.75H31.875C32.1734 21.75 32.4595 21.6315 32.6705 21.4205C32.8815 21.2095 33 20.9234 33 20.625C33 20.3266 32.8815 20.0405 32.6705 19.8295C32.4595 19.6185 32.1734 19.5 31.875 19.5H20.625ZM20.625 24C20.3266 24 20.0405 24.1185 19.8295 24.3295C19.6185 24.5405 19.5 24.8266 19.5 25.125C19.5 25.4234 19.6185 25.7095 19.8295 25.9205C20.0405 26.1315 20.3266 26.25 20.625 26.25H31.875C32.1734 26.25 32.4595 26.1315 32.6705 25.9205C32.8815 25.7095 33 25.4234 33 25.125C33 24.8266 32.8815 24.5405 32.6705 24.3295C32.4595 24.1185 32.1734 24 31.875 24H20.625ZM20.625 28.5C20.3266 28.5 20.0405 28.6185 19.8295 28.8295C19.6185 29.0405 19.5 29.3266 19.5 29.625C19.5 29.9234 19.6185 30.2095 19.8295 30.4205C20.0405 30.6315 20.3266 30.75 20.625 30.75H31.875C32.1734 30.75 32.4595 30.6315 32.6705 30.4205C32.8815 30.2095 33 29.9234 33 29.625C33 29.3266 32.8815 29.0405 32.6705 28.8295C32.4595 28.6185 32.1734 28.5 31.875 28.5H20.625Z" fill="#3182F7"/>
</svg>
