<svg width="24" height="24" viewBox="0 0 24 24" fill="none" xmlns="http://www.w3.org/2000/svg">
<path d="M5.7915 4.5C5.7915 3.83696 6.06269 3.20107 6.54541 2.73223C7.02813 2.26339 7.68284 2 8.36551 2H16.0875C16.7702 2 17.4249 2.26339 17.9076 2.73223C18.3903 3.20107 18.6615 3.83696 18.6615 4.5V19.5C18.6615 20.163 18.3903 20.7989 17.9076 21.2678C17.4249 21.7366 16.7702 22 16.0875 22H8.36551C7.68284 22 7.02813 21.7366 6.54541 21.2678C6.06269 20.7989 5.7915 20.163 5.7915 19.5V4.5ZM13.5135 18.25C13.5135 17.9185 13.3779 17.6005 13.1366 17.3661C12.8952 17.1317 12.5678 17 12.2265 17C11.8852 17 11.5578 17.1317 11.3165 17.3661C11.0751 17.6005 10.9395 17.9185 10.9395 18.25C10.9395 18.5815 11.0751 18.8995 11.3165 19.1339C11.5578 19.3683 11.8852 19.5 12.2265 19.5C12.5678 19.5 12.8952 19.3683 13.1366 19.1339C13.3779 18.8995 13.5135 18.5815 13.5135 18.25Z" fill="#5D6067"/>
<rect x="7.07861" y="3.33325" width="10.296" height="12.6667" rx="2" fill="white"/>
</svg>
