<svg width="28" height="28" viewBox="0 0 28 28" fill="none" xmlns="http://www.w3.org/2000/svg">
<path d="M2.91663 22.1667V8.16666H25.0833V22.1667C25.0833 23.45 24.0333 24.5 22.75 24.5H5.24996C3.96663 24.5 2.91663 23.45 2.91663 22.1667Z" fill="#8C969F"/>
<path d="M25.0833 5.83333V9.33333H2.91663V5.83333C2.91663 4.55 3.96663 3.5 5.24996 3.5H22.75C24.0333 3.5 25.0833 4.55 25.0833 5.83333Z" fill="#3182F7"/>
<path d="M7.58337 12.25H11.0834V15.75H7.58337V12.25ZM12.25 12.25H15.75V15.75H12.25V12.25ZM16.9167 12.25H20.4167V15.75H16.9167V12.25ZM7.58337 16.9167H11.0834V20.4167H7.58337V16.9167ZM12.25 16.9167H15.75V20.4167H12.25V16.9167Z" fill="white"/>
<path d="M16.9166 16.9167H20.4166V20.4167H16.9166V16.9167Z" fill="#3182F7"/>
</svg>
