<svg width="28" height="28" viewBox="0 0 28 28" fill="none" xmlns="http://www.w3.org/2000/svg">
<path d="M2.91669 22.1666V8.16663H25.0834V22.1666C25.0834 23.45 24.0334 24.5 22.75 24.5H5.25002C3.96669 24.5 2.91669 23.45 2.91669 22.1666Z" fill="#8C969F"/>
<path d="M25.0834 5.83333V9.33333H2.91669V5.83333C2.91669 4.55 3.96669 3.5 5.25002 3.5H22.75C24.0334 3.5 25.0834 4.55 25.0834 5.83333Z" fill="#E95548"/>
<path d="M7.58331 12.25H11.0833V15.75H7.58331V12.25ZM12.25 12.25H15.75V15.75H12.25V12.25ZM16.9166 12.25H20.4166V15.75H16.9166V12.25ZM7.58331 16.9167H11.0833V20.4167H7.58331V16.9167ZM12.25 16.9167H15.75V20.4167H12.25V16.9167Z" fill="white"/>
<path d="M16.9167 16.9166H20.4167V20.4166H16.9167V16.9166Z" fill="#E95548"/>
</svg>
