<svg width="64" height="64" viewBox="0 0 64 64" fill="none" xmlns="http://www.w3.org/2000/svg">
<circle cx="32" cy="32" r="32" fill="#E8E9EB"/>
<path d="M43.1189 35.8648C43.6898 35.8648 44.255 35.9773 44.7824 36.1958C45.3098 36.4143 45.789 36.7346 46.1926 37.1383C46.5962 37.5421 46.9162 38.0214 47.1345 38.5489C47.3528 39.0764 47.465 39.6417 47.4648 40.2126V41.9865C47.4642 43.094 47.1176 44.1736 46.4735 45.0744C43.488 49.2561 38.6087 51.3256 32 51.3256C25.3894 51.3256 20.5141 49.2541 17.5344 45.0725C16.893 44.172 16.5486 43.094 16.5488 41.9884V40.2107C16.5488 39.0587 17.0062 37.9539 17.8204 37.139C18.6345 36.3241 19.7389 35.8658 20.8909 35.8648H43.117H43.1189ZM32 12.686C33.2689 12.686 34.5252 12.9359 35.6975 13.4215C36.8697 13.9071 37.9348 14.6187 38.832 15.5159C39.7292 16.4131 40.4409 17.4782 40.9264 18.6504C41.412 19.8227 41.6619 21.0791 41.6619 22.3479C41.6619 23.6167 41.412 24.8731 40.9264 26.0453C40.4409 27.2175 39.7292 28.2826 38.832 29.1798C37.9348 30.077 36.8697 30.7887 35.6975 31.2742C34.5252 31.7598 33.2689 32.0097 32 32.0097C29.4376 32.0097 26.98 30.9918 25.1681 29.1798C23.3562 27.3679 22.3382 24.9103 22.3382 22.3479C22.3382 19.7854 23.3562 17.3279 25.1681 15.5159C26.98 13.704 29.4376 12.686 32 12.686Z" fill="#C2C7CB"/>
</svg>
