<svg width="36" height="36" viewBox="0 0 36 36" fill="none" xmlns="http://www.w3.org/2000/svg">
<path d="M28.5 15.684V24.8438C28.5001 25.7777 28.1189 26.6762 27.4348 27.355C26.7507 28.0338 25.8154 28.4415 24.8208 28.4944L24.6 28.5H8.4C7.40384 28.5001 6.44541 28.1428 5.72132 27.5014C4.99724 26.86 4.5624 25.9832 4.506 25.0507L4.5 24.8438V15.684L16.0824 21.372C16.2113 21.4353 16.3545 21.4683 16.5 21.4683C16.6455 21.4683 16.7887 21.4353 16.9176 21.372L28.5 15.684ZM8.4 10.5H24.6C25.5667 10.4999 26.499 10.8364 27.216 11.4442C27.9331 12.052 28.3838 12.8878 28.4808 13.7895L16.5 19.6733L4.5192 13.7895C4.61223 12.9236 5.03166 12.1172 5.7021 11.5153C6.37254 10.9133 7.25002 10.5553 8.1768 10.5056L8.4 10.5H24.6H8.4Z" fill="#A3ABB8"/>
<ellipse cx="24" cy="12" rx="7.5" ry="7.5" fill="white"/>
<path fill-rule="evenodd" clip-rule="evenodd" d="M19.4038 16.5957C20.6228 17.8147 22.2761 18.4995 24 18.4995C25.7239 18.4995 27.3772 17.8147 28.5962 16.5957C29.8152 15.3767 30.5 13.7234 30.5 11.9995C30.5 10.2756 29.8152 8.6223 28.5962 7.40332C27.3772 6.18433 25.7239 5.49951 24 5.49951C22.2761 5.49951 20.6228 6.18433 19.4038 7.40332C18.1848 8.6223 17.5 10.2756 17.5 11.9995C17.5 13.7234 18.1848 15.3767 19.4038 16.5957ZM23.8275 15.3724L23.7447 15.4398L23.6549 15.4918C23.5618 15.5342 23.4592 15.5517 23.3573 15.5426C23.2554 15.5335 23.1576 15.4981 23.0735 15.4398L22.9919 15.3724L20.0019 12.3789L19.957 12.3198L19.9085 12.2252L19.8778 12.1271L19.866 12.0515V11.9475L19.8778 11.8719L19.9085 11.7738L19.9582 11.6792L20.0007 11.6201L22.9907 8.6266L23.0735 8.55924C23.1872 8.48141 23.3246 8.44578 23.4618 8.45853C23.5991 8.47129 23.7275 8.53161 23.825 8.62907C23.9224 8.72653 23.9828 8.855 23.9955 8.99224C24.0083 9.12947 23.9727 9.26685 23.8948 9.3806L23.8275 9.46333L21.8798 11.4098L27.5525 11.4086L27.6589 11.4181C27.777 11.4396 27.8857 11.4966 27.9705 11.5815C28.0554 11.6664 28.1124 11.7751 28.134 11.8931L28.1435 11.9995L28.134 12.1059C28.1124 12.2239 28.0554 12.3326 27.9705 12.4175C27.8857 12.5024 27.777 12.5594 27.6589 12.581L27.5525 12.5904L21.8822 12.5916L23.8275 14.5357L23.8948 14.6184C23.9629 14.7171 23.9994 14.8342 23.9994 14.9541C23.9994 15.074 23.9629 15.191 23.8948 15.2897L23.8275 15.3724Z" fill="#F42E98"/>
</svg>
