<svg width="14" height="14" viewBox="0 0 14 14" fill="none" xmlns="http://www.w3.org/2000/svg">
<path fill-rule="evenodd" clip-rule="evenodd" d="M0.634602 11.3654C0.228273 10.9591 0 10.408 0 9.83333V5.33333H3.16667C3.4512 5.33333 3.73294 5.27729 3.99581 5.16841C4.25869 5.05952 4.49754 4.89992 4.69873 4.69873C4.89993 4.49754 5.05952 4.25869 5.16841 3.99581C5.27729 3.73294 5.33333 3.4512 5.33333 3.16667V0H9.83333C10.408 0 10.9591 0.228273 11.3654 0.634602C11.7717 1.04093 12 1.59203 12 2.16667V5.34133C11.6816 5.31343 11.361 5.35568 11.0607 5.4651C10.7604 5.57453 10.4878 5.74847 10.262 5.97467L6.32733 9.91C6.012 10.2247 5.78867 10.6193 5.68067 11.0513L5.44333 12H2.16667C1.59203 12 1.04093 11.7717 0.634602 11.3654ZM0.293333 4.33333L4.33333 0.293333V3.16667C4.33333 3.47609 4.21042 3.77283 3.99162 3.99162C3.77283 4.21042 3.47609 4.33333 3.16667 4.33333H0.293333Z" fill="#ABB6C5"/>
<path d="M10.7333 6.44667L6.798 10.3813C6.56872 10.6107 6.40604 10.898 6.32733 11.2127L6.022 12.4333C5.99163 12.5548 5.99325 12.682 6.02669 12.8027C6.06013 12.9233 6.12425 13.0332 6.2128 13.1217C6.30136 13.2102 6.41133 13.2742 6.53199 13.3076C6.65266 13.3409 6.77991 13.3425 6.90133 13.312L8.12133 13.0073C8.43628 12.9286 8.72387 12.7657 8.95333 12.536L12.888 8.60133C13.1627 8.31338 13.3139 7.92938 13.3092 7.53141C13.3046 7.13345 13.1444 6.75311 12.863 6.47168C12.5816 6.19026 12.2012 6.0301 11.8033 6.02542C11.4053 6.02075 11.0213 6.17193 10.7333 6.44667Z" fill="#F42E98"/>
</svg>
